<?xml version="1.0" encoding="UTF-8" standalone="no"?>
<svg
   xmlns:dc="http://purl.org/dc/elements/1.1/"
   xmlns:cc="http://creativecommons.org/ns#"
   xmlns:rdf="http://www.w3.org/1999/02/22-rdf-syntax-ns#"
   xmlns:svg="http://www.w3.org/2000/svg"
   xmlns="http://www.w3.org/2000/svg"
   xmlns:sodipodi="http://sodipodi.sourceforge.net/DTD/sodipodi-0.dtd"
   xmlns:inkscape="http://www.inkscape.org/namespaces/inkscape"
   enable-background="new 0 0 32 32"
   height="512"
   id="Layer_1"
   version="1.1"
   viewBox="0 0 512 512"
   width="512"
   xml:space="preserve"
   inkscape:version="0.48.5 r10040"
   sodipodi:docname="icon.svg"
   inkscape:export-filename="C:\work\atomic_demo_2.png"
   inkscape:export-xdpi="599.94141"
   inkscape:export-ydpi="599.94141"><metadata
     id="metadata3097"><rdf:RDF><cc:Work
         rdf:about=""><dc:format>image/svg+xml</dc:format><dc:type
           rdf:resource="http://purl.org/dc/dcmitype/StillImage" /><dc:title></dc:title></cc:Work></rdf:RDF></metadata><defs
     id="defs3095"><filter
       inkscape:collect="always"
       id="filter3824"><feGaussianBlur
         inkscape:collect="always"
         stdDeviation="1.5305842"
         id="feGaussianBlur3826" /></filter><filter
       inkscape:collect="always"
       id="filter4284"><feGaussianBlur
         inkscape:collect="always"
         stdDeviation="2.7559389"
         id="feGaussianBlur4286" /></filter><filter
       color-interpolation-filters="sRGB"
       inkscape:collect="always"
       id="filter4284-9"><feGaussianBlur
         inkscape:collect="always"
         stdDeviation="2.7559389"
         id="feGaussianBlur4286-2" /></filter><filter
       color-interpolation-filters="sRGB"
       inkscape:collect="always"
       id="filter4284-98"><feGaussianBlur
         inkscape:collect="always"
         stdDeviation="2.7559389"
         id="feGaussianBlur4286-6" /></filter><filter
       inkscape:collect="always"
       id="filter4626"><feGaussianBlur
         inkscape:collect="always"
         stdDeviation="4.2858132"
         id="feGaussianBlur4628" /></filter></defs><sodipodi:namedview
     pagecolor="#ffffff"
     bordercolor="#666666"
     borderopacity="1"
     objecttolerance="31"
     gridtolerance="10"
     guidetolerance="10"
     inkscape:pageopacity="0"
     inkscape:pageshadow="2"
     inkscape:window-width="1366"
     inkscape:window-height="705"
     id="namedview3093"
     showgrid="false"
     fit-margin-top="0"
     fit-margin-left="0"
     fit-margin-right="0"
     fit-margin-bottom="0"
     inkscape:zoom="1"
     inkscape:cx="247.05236"
     inkscape:cy="264.27519"
     inkscape:window-x="-8"
     inkscape:window-y="-8"
     inkscape:window-maximized="1"
     inkscape:current-layer="g4168"
     inkscape:snap-global="false" /><path
     sodipodi:nodetypes="ccccccccccccccccccccc"
     inkscape:connector-curvature="0"
     d="m 105.38634,106.02177 96.17836,226.49855 c 2.55682,5.97494 1.95699,12.85229 -1.64024,18.27114 -0.82385,1.25263 -1.79736,2.38183 -2.85234,3.40153 -3.56205,3.37148 -8.30609,5.30514 -13.31556,5.27215 l -345.56805,0.57783 c -6.37455,-0.0117 -12.32738,-3.18708 -15.91052,-8.49714 -3.56964,-5.26907 -4.30813,-11.98777 -1.95109,-17.91646 l 51.33167,-118.65335 12.80541,-29.65126 70.074918,-162.058355 -46.80402,-0.15724 c -5.32346,-0.0205 -9.611948,-4.3728 -9.591418,-9.69624 l 0.10483,-38.627733 c 0.0205,-5.323461 4.372778,-9.611963 9.696238,-9.591417 l 210.906362,0.838594 c 5.36456,-0.02029 9.69176,4.293181 9.64383,9.643829 l -0.15716,38.627727 c -0.007,5.33717 -4.35918,9.62567 -9.69624,9.59142 l -48.271562,-0.15715 26.73018,62.894545"
     style="opacity:0.55288463;fill:#4d4d4d;fill-opacity:1;filter:url(#filter4626)"
     id="path2999-5-1-1-5"
     transform="matrix(1.1340613,0,0,1.1663464,238.41811,74.330701)" /><g
     id="g4541"
     transform="matrix(1.1663464,0,0,1.1663464,-46.344762,-47.833225)"><g
       id="g3986-1-6"
       transform="translate(244.95272,93.381664)"><path
         sodipodi:nodetypes="ccccccccccccccccccccc"
         inkscape:connector-curvature="0"
         d="m 105.38634,106.02177 96.17836,226.49855 c 2.55682,5.97494 1.95699,12.85229 -1.64024,18.27114 -0.82385,1.25263 -1.79736,2.38183 -2.85234,3.40153 -3.56205,3.37148 -8.30609,5.30514 -13.31556,5.27215 l -345.56805,0.57783 c -6.37455,-0.0117 -12.32738,-3.18708 -15.91052,-8.49714 -3.56964,-5.26907 -4.30813,-11.98777 -1.95109,-17.91646 l 51.33167,-118.65335 12.80541,-29.65126 70.074918,-162.058355 -46.80402,-0.15724 c -5.32346,-0.0205 -9.611948,-4.3728 -9.591418,-9.69624 l 0.10483,-38.627733 c 0.0205,-5.323461 4.372778,-9.611963 9.696238,-9.591417 l 210.906362,0.838594 c 5.36456,-0.02029 9.69176,4.293181 9.64383,9.643829 l -0.15716,38.627727 c -0.007,5.33717 -4.35918,9.62567 -9.69624,9.59142 l -48.271562,-0.15715 26.73018,62.894545"
         style="fill:#259b24;fill-opacity:1"
         id="path2999-5-1-1" /></g><g
       transform="translate(-1.8317632e-6,-58.575366)"
       id="g4168"><path
         inkscape:connector-curvature="0"
         id="path3001"
         d="m 152.89725,117.15081 210.90637,0.83859 c 5.36456,-0.0203 9.69176,4.29318 9.64383,9.64383 l -0.15716,38.62773 c -0.007,5.33717 -4.35918,9.62567 -9.69624,9.59142 l -48.27156,-0.15715 26.73018,62.89454 c -82.10436,-0.24849 -129.16877,36.14357 -171.59728,69.02676 -13.63625,10.56716 -26.98533,20.66946 -41.03869,29.66526 L 199.49162,175.22344 152.6876,175.0662 c -5.32346,-0.0205 -9.61195,-4.3728 -9.59142,-9.69624 l 0.10483,-38.62773 c 0.0205,-5.32346 4.37278,-9.61197 9.69624,-9.59142 z"
         style="fill:#bdbdbd;fill-opacity:1" /><path
         inkscape:connector-curvature="0"
         id="path2999"
         d="m 446.51742,484.47735 c 2.55682,5.97494 1.95699,12.85229 -1.64024,18.27114 -0.82385,1.25263 -1.79736,2.38183 -2.85234,3.40153 -3.56205,3.37148 -8.30609,5.30514 -13.31555,5.27215 L 83.141228,512 c -6.374554,-0.0117 -12.32738,-3.18708 -15.910524,-8.49714 -3.569643,-5.26907 -4.308126,-11.98777 -1.95109,-17.91646 L 116.61129,366.93305 C 192.95223,329.06191 232.11844,253.70068 350.33907,257.9788 l 96.17835,226.49855 z"
         style="fill:#068700;fill-opacity:1" /></g><path
       inkscape:connector-curvature="0"
       id="path2999-5-1-1-1"
       d="m 199.07589,117.83458 -70.09375,162.0625 -12.78125,29.65625 -51.343752,118.65625 c -2.35704,5.92869 -1.60089,12.63718 1.96875,17.90625 3.58314,5.31006 9.5317,8.4883 15.90625,8.5 l 310.468752,-0.53125 -194.125,-336.25 z"
       style="opacity:0.095;fill:#000000;fill-opacity:1" /><path
       inkscape:connector-curvature="0"
       id="path2999-8"
       d="m 351.2088,199.63176 -114.78125,253.75 193.21875,-0.3125 c 5.0094,0.033 9.7505,-1.90977 13.3125,-5.28125 1.055,-1.0197 2.0512,-2.15362 2.875,-3.40625 3.5973,-5.41885 4.1818,-12.30631 1.625,-18.28125 L 351.30255,199.63176 c -0.0315,-0.001 -0.0623,10e-4 -0.0937,0 z"
       style="opacity:0.095;fill:#000000;fill-opacity:1" /></g></svg>