<?xml version="1.0" encoding="UTF-8" standalone="no"?>
<svg
   xmlns:dc="http://purl.org/dc/elements/1.1/"
   xmlns:cc="http://creativecommons.org/ns#"
   xmlns:rdf="http://www.w3.org/1999/02/22-rdf-syntax-ns#"
   xmlns:svg="http://www.w3.org/2000/svg"
   xmlns="http://www.w3.org/2000/svg"
   xmlns:sodipodi="http://sodipodi.sourceforge.net/DTD/sodipodi-0.dtd"
   xmlns:inkscape="http://www.inkscape.org/namespaces/inkscape"
   enable-background="new 0 0 32 32"
   height="32px"
   id="Layer_1"
   version="1.1"
   viewBox="0 0 32 32"
   width="32px"
   xml:space="preserve"
   inkscape:version="0.48.4 r9939"
   sodipodi:docname="1391953788_lab.svg"><metadata
     id="metadata3783"><rdf:RDF><cc:Work
         rdf:about=""><dc:format>image/svg+xml</dc:format><dc:type
           rdf:resource="http://purl.org/dc/dcmitype/StillImage" /><dc:title></dc:title></cc:Work></rdf:RDF></metadata><defs
     id="defs3781" /><sodipodi:namedview
     pagecolor="#ffffff"
     bordercolor="#666666"
     borderopacity="1"
     objecttolerance="10"
     gridtolerance="10"
     guidetolerance="10"
     inkscape:pageopacity="0"
     inkscape:pageshadow="2"
     inkscape:window-width="1920"
     inkscape:window-height="1028"
     id="namedview3779"
     showgrid="false"
     inkscape:zoom="24.804199"
     inkscape:cx="16"
     inkscape:cy="16"
     inkscape:window-x="-8"
     inkscape:window-y="22"
     inkscape:window-maximized="1"
     inkscape:current-layer="Layer_1" /><path
     style="fill:#333333"
     inkscape:connector-curvature="0"
     id="path3767"
     d="M 20.682,3.732 C 20.209,3.26 19.582,3 18.914,3 18.246,3 17.619,3.26 17.144,3.733 l -1.41,1.412 C 15.261,5.617 15,6.245 15,6.914 c 0,0.471 0.129,0.922 0.371,1.313 L 1.794,13.666 c -0.908,0.399 -1.559,1.218 -1.742,2.189 -0.185,0.977 0.125,1.979 0.834,2.687 l 12.72,12.58 c 0.548,0.548 1.276,0.859 2.045,0.877 C 15.669,32 15.711,32 15.729,32 c 0.202,0 0.407,-0.021 0.61,-0.062 0.994,-0.206 1.808,-0.893 2.177,-1.828 l 5.342,-13.376 c 0.402,0.265 0.875,0.407 1.367,0.407 0.67,0 1.297,-0.261 1.768,-0.733 L 28.4,15 c 0.477,-0.474 0.738,-1.103 0.738,-1.773 0,-0.67 -0.262,-1.3 -0.732,-1.768 z m 6.31,9.848 -1.414,1.413 c -0.195,0.196 -0.512,0.196 -0.707,0 l -1.768,-1.767 -1.432,3.589 0.119,-0.303 C 18.78,13.507 15.721,13.128 12.961,12.789 12.074,12.68 11.214,12.566 10.369,12.384 L 18.86,8.983 17.145,7.268 c -0.195,-0.195 -0.195,-0.512 0,-0.707 l 1.414,-1.415 c 0.195,-0.195 0.512,-0.195 0.707,0 l 7.725,7.727 c 0.198,0.195 0.198,0.512 0.001,0.707 z"
     sodipodi:nodetypes="csccsccccccscccsccscccccccccccsccccc" /><path
     style="fill:#333333"
     inkscape:connector-curvature="0"
     id="path3771"
     d="m 28.230054,0.48378905 c -1.545786,0 -2.802368,1.25658195 -2.802368,2.80236825 0,1.5457862 1.256582,2.8023681 2.802368,2.8023681 1.545786,0 2.802368,-1.2565819 2.802368,-2.8023681 0,-1.5457863 -1.256582,-2.80236825 -2.802368,-2.80236825 z m 0,4.48378915 c -0.928144,0 -1.681421,-0.7532766 -1.681421,-1.6814209 0,-0.9281444 0.753277,-1.6814209 1.681421,-1.6814209 0.928144,0 1.681421,0.7532765 1.681421,1.6814209 0,0.9281443 -0.753277,1.6814209 -1.681421,1.6814209 z" /><circle
     style="fill:#333333"
     sodipodi:ry="1"
     sodipodi:rx="1"
     sodipodi:cy="8"
     sodipodi:cx="29"
     id="circle3777"
     r="1"
     cy="8"
     cx="29"
     transform="matrix(1.3628418,0,0,1.3628418,-10.401465,-2.7011555)" /></svg>